<svg width="104" height="48" viewBox="0 0 104 48" fill="none" xmlns="http://www.w3.org/2000/svg">
<path fill-rule="evenodd" clip-rule="evenodd" d="M11.4692 34.8849C17.8034 34.8849 22.9383 29.7499 22.9383 23.4157C22.9383 17.0815 17.8034 11.9465 11.4692 11.9465C5.13492 11.9465 0 17.0815 0 23.4157C0 29.7499 5.13492 34.8849 11.4692 34.8849ZM11.4688 27.2399C13.5802 27.2399 15.2919 25.5283 15.2919 23.4169C15.2919 21.3055 13.5802 19.5938 11.4688 19.5938C9.3574 19.5938 7.64576 21.3055 7.64576 23.4169C7.64576 25.5283 9.3574 27.2399 11.4688 27.2399Z" fill="#007CC2"/>
<path fill-rule="evenodd" clip-rule="evenodd" d="M10.0631 0.411982C10.9786 -0.137327 12.1223 -0.137327 13.0378 0.411982L20.2652 4.74842C21.6343 5.56988 22.0783 7.34568 21.2568 8.71478C20.4354 10.0839 18.6596 10.5278 17.2904 9.70638L11.5504 6.26237L5.81042 9.70638C4.44132 10.5278 2.66552 10.0839 1.84406 8.71478C1.0226 7.34568 1.46655 5.56988 2.83565 4.74842L10.0631 0.411982Z" fill="#007CC2"/>
<path d="M37.9714 30.0878C40.4473 30.0878 42.8174 28.769 43.8755 26.5356L41.3572 25.1105C40.7012 26.3442 39.5585 27.1312 37.8444 27.1312C35.4531 27.1312 33.7602 25.2381 33.7602 22.6431C33.7602 20.048 35.4743 18.155 37.8444 18.155C39.5585 18.155 40.6589 18.942 41.3572 20.1757L43.8755 18.7505C42.8174 16.5171 40.4473 15.1983 37.9714 15.1983C33.8237 15.1983 30.5859 18.4953 30.5859 22.6431C30.5859 26.7908 33.8237 30.0878 37.9714 30.0878Z" fill="#007CC2"/>
<path d="M49.4821 30.0665C50.9211 30.0665 52.0638 29.4922 52.8045 28.5563V29.79H55.6613V24.4936C55.6613 21.3243 53.2489 18.942 49.9688 18.942C46.7523 18.942 44.2975 21.4732 44.2975 24.4936C44.2975 27.5566 46.4348 30.0665 49.4821 30.0665ZM49.9688 27.2375C48.424 27.2375 47.3025 26.0038 47.3025 24.5149C47.3025 23.0259 48.424 21.7922 49.9688 21.7922C51.5136 21.7922 52.6564 23.0259 52.6564 24.5149C52.6564 26.0038 51.5136 27.2375 49.9688 27.2375Z" fill="#007CC2"/>
<path d="M62.155 30.0878C65.3927 30.0878 67.8263 27.5779 67.8263 24.5361C67.8263 21.2605 65.5831 18.9632 62.3243 18.9632C61.2662 18.9632 60.2716 19.3461 59.4886 19.9417V14.4113H56.4836V24.5361C56.4836 27.7267 58.8961 30.0878 62.155 30.0878ZM62.155 27.2375C60.6102 27.2375 59.4886 26.0251 59.4886 24.5361C59.4886 23.0472 60.6102 21.8135 62.155 21.8135C63.6998 21.8135 64.8213 23.0472 64.8213 24.5361C64.8213 26.0251 63.6998 27.2375 62.155 27.2375Z" fill="#007CC2"/>
<path d="M73.6428 30.0665C75.0817 30.0665 76.2245 29.4922 76.9651 28.5563V29.79H79.822V24.4936C79.822 21.3243 77.4095 18.942 74.1295 18.942C70.9129 18.942 68.4582 21.4732 68.4582 24.4936C68.4582 27.5566 70.5955 30.0665 73.6428 30.0665ZM74.1295 27.2375C72.5847 27.2375 71.4631 26.0038 71.4631 24.5149C71.4631 23.0259 72.5847 21.7922 74.1295 21.7922C75.6743 21.7922 76.817 23.0259 76.817 24.5149C76.817 26.0038 75.6743 27.2375 74.1295 27.2375Z" fill="#007CC2"/>
<path d="M86.3156 21.8986C88.0297 21.8986 88.8127 23.2812 88.8127 24.8977V29.79H91.8176V24.5361C91.8176 21.4519 89.9766 18.9632 86.3156 18.9632C82.6547 18.9632 80.8559 21.4732 80.8559 24.5361V29.79H83.8609V24.8977C83.8609 23.2812 84.6227 21.8986 86.3156 21.8986Z" fill="#007CC2"/>
<path d="M97.7158 30.0665C99.1548 30.0665 100.298 29.4922 101.038 28.5563V29.79H103.895V24.4936C103.895 21.3243 101.483 18.942 98.2025 18.942C94.9859 18.942 92.5312 21.4732 92.5312 24.4936C92.5312 27.5566 94.6685 30.0665 97.7158 30.0665ZM98.2025 27.2375C96.6577 27.2375 95.5361 26.0038 95.5361 24.5149C95.5361 23.0259 96.6577 21.7922 98.2025 21.7922C99.7473 21.7922 100.89 23.0259 100.89 24.5149C100.89 26.0038 99.7473 27.2375 98.2025 27.2375Z" fill="#007CC2"/>
<path d="M34.4654 34.9641H32.5156V46.0127C32.5156 47.1023 33.0126 47.7713 34.3125 47.7713H40.8308V45.9745H34.4654V34.9641Z" fill="#007CC2"/>
<path d="M45.7179 48.0007C47.2471 48.0007 48.4896 47.2743 49.1968 46.1274V47.7713H50.9937V43.0689C50.9937 40.2781 48.8336 38.1754 46.0046 38.1754C43.1564 38.1754 41.0155 40.3928 41.0155 43.0689C41.0155 45.7833 43.0035 48.0007 45.7179 48.0007ZM46.0046 46.2038C44.2651 46.2038 42.9079 44.7893 42.9079 43.0881C42.9079 41.3677 44.2651 39.9532 46.0046 39.9532C47.7632 39.9532 49.1013 41.3677 49.1013 43.0881C49.1013 44.7893 47.7632 46.2038 46.0046 46.2038Z" fill="#007CC2"/>
<path d="M57.7378 48.0007C60.5668 48.0007 62.7078 45.8024 62.7078 43.1072C62.7078 40.259 60.6624 38.1754 57.8142 38.1754C56.5526 38.1754 55.4057 38.7298 54.6411 39.5708V34.1039H52.7487V43.1072C52.7487 45.8789 54.9087 48.0007 57.7378 48.0007ZM57.7378 46.223C55.9792 46.223 54.6411 44.8084 54.6411 43.0881C54.6411 41.3868 55.9792 39.9723 57.7378 39.9723C59.4773 39.9723 60.8153 41.3868 60.8153 43.0881C60.8153 44.8084 59.4773 46.223 57.7378 46.223Z" fill="#007CC2"/>
<path d="M67.2536 47.9816C69.2416 47.9816 70.962 46.8538 70.962 45.076C70.962 41.5397 65.5906 42.9351 65.5906 41.0236C65.5906 40.2781 66.3552 39.8193 67.2345 39.8193C68.0947 39.8193 68.8593 40.1061 69.2607 40.928L70.7135 40.1061C70.1209 39.0165 68.9357 38.2137 67.1963 38.2137C65.1509 38.2137 63.6982 39.4179 63.6982 41.0618C63.6982 44.6364 69.0696 43.1454 69.0696 45.1143C69.0696 45.9362 68.2476 46.3759 67.1771 46.3759C66.1449 46.3759 65.3803 46.0318 64.9024 45.0952L63.4497 45.898C64.176 47.2934 65.5141 47.9816 67.2536 47.9816Z" fill="#007CC2"/>
</svg>
